# xmcd
# 
# Track frame offsets:
#     150
#     27032
#     46500
#     66605
#     95480
#     127320
#     153677
# 
# Disc length: 2357
# 
# Revision: 3
# Processed by: cddbd v1.5.2PL0 Copyright (c) Steve Scherf et al.
# Submitted via: BonkEnc v1.0.15
# 
DISCID=5e093307
DTITLE=Horace Silver - 6 Pieces Of Silver
DYEAR=1956
DGENRE=Jazz
TTITLE0=Cool Eyes
TTITLE1=Shirl
TTITLE2=Camouflage
TTITLE3=Enchantment
TTITLE4=Senor Blues
TTITLE5=Virgo
TTITLE6=For Heaven's Sake
EXTD=YEAR: 1956
EXTT0=
EXTT1=
EXTT2=
EXTT3=
EXTT4=
EXTT5=
EXTT6=
PLAYORDER=
